<?xml version="1.0"?>
<svg xmlns="http://www.w3.org/2000/svg" viewBox="0 0 24 24">
    <path d="M 15.9375 4 L 9.28125 9.03125 C 8.48425 9.63625 8.03125 10.59375 8.03125 11.59375 L 8 17 C 7.994 18.109 8.891 19 10 19 L 17.4375 19 C 18.0805 19 18.70775 18.56575 18.96875 17.84375 L 19.78125 13.59375 C 19.85525 13.38875 19.9015 12.1875 19.9375 11.0625 C 19.9755 9.9335 19.0665 9 17.9375 9 L 15.25 9 C 15.25 9 17.3125 6.16425 17.3125 5.65625 C 17.3125 4.34625 15.9375 4 15.9375 4 z M 4 10 L 4 19 L 7 19 L 7 10 L 4 10 z M 5.5 17 C 5.776 17 6 17.224 6 17.5 C 6 17.776 5.776 18 5.5 18 C 5.224 18 5 17.776 5 17.5 C 5 17.224 5.224 17 5.5 17 z"/>
</svg>
